<mxfile host="app.diagrams.net" agent="Mozilla/5.0 (Windows NT 10.0; Win64; x64) AppleWebKit/537.36 (KHTML, like Gecko) Chrome/130.0.0.0 Safari/537.36" version="24.8.3">
  <diagram id="R2lEEEUBdFMjLlhIrx00" name="Page-1">
    <mxGraphModel dx="2759" dy="2135" grid="1" gridSize="10" guides="1" tooltips="1" connect="1" arrows="1" fold="1" page="1" pageScale="1" pageWidth="850" pageHeight="1100" math="0" shadow="0" extFonts="Permanent Marker^https://fonts.googleapis.com/css?family=Permanent+Marker">
      <root>
        <mxCell id="0" />
        <mxCell id="1" parent="0" />
        <mxCell id="9NbQwZKD4lcpu0sw6ppA-3" value="&lt;font data-font-src=&quot;https://fonts.googleapis.com/css?family=Architects+Daughter&quot; face=&quot;Architects Daughter&quot; style=&quot;font-size: 17px;&quot;&gt;&lt;b&gt;&lt;u&gt;Office_Num&lt;/u&gt;&lt;/b&gt;&lt;/font&gt;" style="ellipse;whiteSpace=wrap;html=1;" vertex="1" parent="1">
          <mxGeometry x="-120" y="60" width="120" height="80" as="geometry" />
        </mxCell>
        <mxCell id="9NbQwZKD4lcpu0sw6ppA-4" value="&lt;font data-font-src=&quot;https://fonts.googleapis.com/css?family=Architects+Daughter&quot; face=&quot;Architects Daughter&quot; style=&quot;font-size: 17px;&quot;&gt;&lt;b&gt;Sales office&lt;/b&gt;&lt;/font&gt;" style="rounded=0;whiteSpace=wrap;html=1;" vertex="1" parent="1">
          <mxGeometry x="-10" y="240" width="120" height="60" as="geometry" />
        </mxCell>
        <mxCell id="9NbQwZKD4lcpu0sw6ppA-5" value="&lt;font data-font-src=&quot;https://fonts.googleapis.com/css?family=Architects+Daughter&quot; face=&quot;Architects Daughter&quot; style=&quot;font-size: 17px;&quot;&gt;&lt;b&gt;Loacation&lt;/b&gt;&lt;/font&gt;" style="ellipse;whiteSpace=wrap;html=1;" vertex="1" parent="1">
          <mxGeometry x="60" y="80" width="120" height="80" as="geometry" />
        </mxCell>
        <mxCell id="9NbQwZKD4lcpu0sw6ppA-6" value="" style="endArrow=none;html=1;rounded=0;entryX=0.5;entryY=1;entryDx=0;entryDy=0;exitX=0.25;exitY=0;exitDx=0;exitDy=0;sketch=1;curveFitting=1;jiggle=2;" edge="1" parent="1" source="9NbQwZKD4lcpu0sw6ppA-4" target="9NbQwZKD4lcpu0sw6ppA-3">
          <mxGeometry width="50" height="50" relative="1" as="geometry">
            <mxPoint x="300" y="350" as="sourcePoint" />
            <mxPoint x="350" y="300" as="targetPoint" />
          </mxGeometry>
        </mxCell>
        <mxCell id="9NbQwZKD4lcpu0sw6ppA-7" value="" style="endArrow=none;html=1;rounded=0;entryX=0.5;entryY=1;entryDx=0;entryDy=0;exitX=0.5;exitY=0;exitDx=0;exitDy=0;sketch=1;curveFitting=1;jiggle=2;" edge="1" parent="1" source="9NbQwZKD4lcpu0sw6ppA-4" target="9NbQwZKD4lcpu0sw6ppA-5">
          <mxGeometry width="50" height="50" relative="1" as="geometry">
            <mxPoint x="300" y="350" as="sourcePoint" />
            <mxPoint x="350" y="300" as="targetPoint" />
          </mxGeometry>
        </mxCell>
        <mxCell id="9NbQwZKD4lcpu0sw6ppA-8" value="&lt;font face=&quot;Architects Daughter&quot;&gt;&lt;span style=&quot;font-size: 17px;&quot;&gt;&lt;b&gt;Employee&lt;/b&gt;&lt;/span&gt;&lt;/font&gt;" style="rounded=0;whiteSpace=wrap;html=1;" vertex="1" parent="1">
          <mxGeometry x="-10" y="580" width="120" height="60" as="geometry" />
        </mxCell>
        <mxCell id="9NbQwZKD4lcpu0sw6ppA-9" value="&lt;font style=&quot;font-size: 17px;&quot; data-font-src=&quot;https://fonts.googleapis.com/css?family=Architects+Daughter&quot; face=&quot;Architects Daughter&quot;&gt;&lt;b&gt;assign&lt;/b&gt;&lt;/font&gt;" style="rhombus;whiteSpace=wrap;html=1;" vertex="1" parent="1">
          <mxGeometry x="10" y="390" width="80" height="80" as="geometry" />
        </mxCell>
        <mxCell id="9NbQwZKD4lcpu0sw6ppA-10" value="" style="endArrow=none;html=1;rounded=0;exitX=0.5;exitY=0;exitDx=0;exitDy=0;entryX=0.5;entryY=1;entryDx=0;entryDy=0;" edge="1" parent="1" source="9NbQwZKD4lcpu0sw6ppA-9" target="9NbQwZKD4lcpu0sw6ppA-4">
          <mxGeometry width="50" height="50" relative="1" as="geometry">
            <mxPoint x="300" y="450" as="sourcePoint" />
            <mxPoint x="350" y="400" as="targetPoint" />
          </mxGeometry>
        </mxCell>
        <mxCell id="9NbQwZKD4lcpu0sw6ppA-13" value="" style="endArrow=none;html=1;rounded=0;exitX=0.5;exitY=0;exitDx=0;exitDy=0;entryX=0.5;entryY=1;entryDx=0;entryDy=0;" edge="1" parent="1" source="9NbQwZKD4lcpu0sw6ppA-8" target="9NbQwZKD4lcpu0sw6ppA-9">
          <mxGeometry width="50" height="50" relative="1" as="geometry">
            <mxPoint x="50" y="560" as="sourcePoint" />
            <mxPoint x="50" y="480" as="targetPoint" />
          </mxGeometry>
        </mxCell>
        <mxCell id="9NbQwZKD4lcpu0sw6ppA-14" value="&lt;font data-font-src=&quot;https://fonts.googleapis.com/css?family=Architects+Daughter&quot; face=&quot;Architects Daughter&quot; style=&quot;font-size: 17px;&quot;&gt;&lt;b&gt;1&lt;/b&gt;&lt;/font&gt;" style="text;html=1;align=center;verticalAlign=middle;whiteSpace=wrap;rounded=0;" vertex="1" parent="1">
          <mxGeometry x="-29" y="304" width="60" height="30" as="geometry" />
        </mxCell>
        <mxCell id="9NbQwZKD4lcpu0sw6ppA-15" value="&lt;font data-font-src=&quot;https://fonts.googleapis.com/css?family=Architects+Daughter&quot; face=&quot;Architects Daughter&quot; style=&quot;font-size: 17px;&quot;&gt;&lt;b&gt;M&lt;/b&gt;&lt;/font&gt;" style="text;html=1;align=center;verticalAlign=middle;whiteSpace=wrap;rounded=0;" vertex="1" parent="1">
          <mxGeometry x="-30" y="550" width="60" height="30" as="geometry" />
        </mxCell>
        <mxCell id="9NbQwZKD4lcpu0sw6ppA-16" value="" style="endArrow=none;html=1;rounded=0;entryX=0;entryY=1;entryDx=0;entryDy=0;exitX=0.25;exitY=0;exitDx=0;exitDy=0;" edge="1" parent="1" source="9NbQwZKD4lcpu0sw6ppA-8" target="9NbQwZKD4lcpu0sw6ppA-9">
          <mxGeometry width="50" height="50" relative="1" as="geometry">
            <mxPoint x="170" y="580" as="sourcePoint" />
            <mxPoint x="220" y="530" as="targetPoint" />
          </mxGeometry>
        </mxCell>
        <mxCell id="9NbQwZKD4lcpu0sw6ppA-17" value="&lt;font face=&quot;Architects Daughter&quot;&gt;&lt;span style=&quot;font-size: 17px;&quot;&gt;&lt;b&gt;Emp_name&lt;/b&gt;&lt;/span&gt;&lt;/font&gt;" style="ellipse;whiteSpace=wrap;html=1;" vertex="1" parent="1">
          <mxGeometry x="60" y="780" width="120" height="80" as="geometry" />
        </mxCell>
        <mxCell id="9NbQwZKD4lcpu0sw6ppA-18" value="&lt;font data-font-src=&quot;https://fonts.googleapis.com/css?family=Architects+Daughter&quot; face=&quot;Architects Daughter&quot; style=&quot;font-size: 17px;&quot;&gt;&lt;b&gt;&lt;u&gt;Emp_ID&lt;/u&gt;&lt;/b&gt;&lt;/font&gt;" style="ellipse;whiteSpace=wrap;html=1;" vertex="1" parent="1">
          <mxGeometry x="-130" y="750" width="120" height="80" as="geometry" />
        </mxCell>
        <mxCell id="9NbQwZKD4lcpu0sw6ppA-20" value="" style="endArrow=none;html=1;rounded=0;exitX=0.5;exitY=0;exitDx=0;exitDy=0;entryX=0.75;entryY=1;entryDx=0;entryDy=0;sketch=1;curveFitting=1;jiggle=2;" edge="1" parent="1" source="9NbQwZKD4lcpu0sw6ppA-17" target="9NbQwZKD4lcpu0sw6ppA-8">
          <mxGeometry width="50" height="50" relative="1" as="geometry">
            <mxPoint x="170" y="700" as="sourcePoint" />
            <mxPoint x="220" y="650" as="targetPoint" />
          </mxGeometry>
        </mxCell>
        <mxCell id="9NbQwZKD4lcpu0sw6ppA-21" value="" style="endArrow=none;html=1;rounded=0;entryX=0.5;entryY=1;entryDx=0;entryDy=0;sketch=1;curveFitting=1;jiggle=2;" edge="1" parent="1" target="9NbQwZKD4lcpu0sw6ppA-8">
          <mxGeometry width="50" height="50" relative="1" as="geometry">
            <mxPoint x="-30" y="770" as="sourcePoint" />
            <mxPoint x="-60" y="620" as="targetPoint" />
          </mxGeometry>
        </mxCell>
        <mxCell id="9NbQwZKD4lcpu0sw6ppA-22" value="" style="endArrow=none;html=1;rounded=0;entryX=0.5;entryY=1;entryDx=0;entryDy=0;exitX=0.75;exitY=0;exitDx=0;exitDy=0;" edge="1" parent="1" source="9NbQwZKD4lcpu0sw6ppA-8" target="9NbQwZKD4lcpu0sw6ppA-23">
          <mxGeometry width="50" height="50" relative="1" as="geometry">
            <mxPoint x="190" y="550" as="sourcePoint" />
            <mxPoint x="240" y="500" as="targetPoint" />
          </mxGeometry>
        </mxCell>
        <mxCell id="9NbQwZKD4lcpu0sw6ppA-23" value="&lt;font style=&quot;font-size: 17px;&quot; data-font-src=&quot;https://fonts.googleapis.com/css?family=Architects+Daughter&quot; face=&quot;Architects Daughter&quot;&gt;&lt;b&gt;manage&lt;/b&gt;&lt;/font&gt;" style="rhombus;whiteSpace=wrap;html=1;" vertex="1" parent="1">
          <mxGeometry x="150" y="390" width="80" height="80" as="geometry" />
        </mxCell>
        <mxCell id="9NbQwZKD4lcpu0sw6ppA-24" value="" style="endArrow=none;html=1;rounded=0;entryX=0.5;entryY=0;entryDx=0;entryDy=0;exitX=0.75;exitY=1;exitDx=0;exitDy=0;" edge="1" parent="1" source="9NbQwZKD4lcpu0sw6ppA-4" target="9NbQwZKD4lcpu0sw6ppA-23">
          <mxGeometry width="50" height="50" relative="1" as="geometry">
            <mxPoint x="190" y="550" as="sourcePoint" />
            <mxPoint x="240" y="500" as="targetPoint" />
          </mxGeometry>
        </mxCell>
        <mxCell id="9NbQwZKD4lcpu0sw6ppA-25" value="" style="endArrow=none;html=1;rounded=0;entryX=0.5;entryY=1;entryDx=0;entryDy=0;exitX=0;exitY=0;exitDx=0;exitDy=0;" edge="1" parent="1" source="9NbQwZKD4lcpu0sw6ppA-23" target="9NbQwZKD4lcpu0sw6ppA-4">
          <mxGeometry width="50" height="50" relative="1" as="geometry">
            <mxPoint x="200" y="480" as="sourcePoint" />
            <mxPoint x="250" y="430" as="targetPoint" />
          </mxGeometry>
        </mxCell>
        <mxCell id="9NbQwZKD4lcpu0sw6ppA-26" value="&lt;font data-font-src=&quot;https://fonts.googleapis.com/css?family=Architects+Daughter&quot; face=&quot;Architects Daughter&quot; style=&quot;font-size: 17px;&quot;&gt;&lt;b&gt;1&lt;/b&gt;&lt;/font&gt;" style="text;html=1;align=center;verticalAlign=middle;whiteSpace=wrap;rounded=0;" vertex="1" parent="1">
          <mxGeometry x="90" y="300" width="60" height="30" as="geometry" />
        </mxCell>
        <mxCell id="9NbQwZKD4lcpu0sw6ppA-27" value="&lt;font data-font-src=&quot;https://fonts.googleapis.com/css?family=Architects+Daughter&quot; face=&quot;Architects Daughter&quot; style=&quot;font-size: 17px;&quot;&gt;&lt;b&gt;1&lt;/b&gt;&lt;/font&gt;" style="text;html=1;align=center;verticalAlign=middle;whiteSpace=wrap;rounded=0;" vertex="1" parent="1">
          <mxGeometry x="90" y="550" width="60" height="30" as="geometry" />
        </mxCell>
        <mxCell id="9NbQwZKD4lcpu0sw6ppA-28" value="&lt;font data-font-src=&quot;https://fonts.googleapis.com/css?family=Architects+Daughter&quot; face=&quot;Architects Daughter&quot; style=&quot;font-size: 17px;&quot;&gt;&lt;b&gt;Property&lt;/b&gt;&lt;/font&gt;" style="rounded=0;whiteSpace=wrap;html=1;" vertex="1" parent="1">
          <mxGeometry x="541" y="240" width="120" height="60" as="geometry" />
        </mxCell>
        <mxCell id="9NbQwZKD4lcpu0sw6ppA-29" value="&lt;font style=&quot;font-size: 17px;&quot; data-font-src=&quot;https://fonts.googleapis.com/css?family=Architects+Daughter&quot; face=&quot;Architects Daughter&quot;&gt;&lt;b&gt;list&lt;/b&gt;&lt;/font&gt;" style="rhombus;whiteSpace=wrap;html=1;" vertex="1" parent="1">
          <mxGeometry x="311" y="230" width="80" height="80" as="geometry" />
        </mxCell>
        <mxCell id="9NbQwZKD4lcpu0sw6ppA-30" value="" style="endArrow=none;html=1;rounded=0;exitX=1;exitY=0.5;exitDx=0;exitDy=0;entryX=0;entryY=0.5;entryDx=0;entryDy=0;" edge="1" parent="1" source="9NbQwZKD4lcpu0sw6ppA-4" target="9NbQwZKD4lcpu0sw6ppA-29">
          <mxGeometry width="50" height="50" relative="1" as="geometry">
            <mxPoint x="340" y="470" as="sourcePoint" />
            <mxPoint x="390" y="420" as="targetPoint" />
          </mxGeometry>
        </mxCell>
        <mxCell id="9NbQwZKD4lcpu0sw6ppA-31" value="" style="endArrow=none;html=1;rounded=0;exitX=1;exitY=0.5;exitDx=0;exitDy=0;entryX=0;entryY=0.5;entryDx=0;entryDy=0;" edge="1" parent="1" source="9NbQwZKD4lcpu0sw6ppA-29" target="9NbQwZKD4lcpu0sw6ppA-28">
          <mxGeometry width="50" height="50" relative="1" as="geometry">
            <mxPoint x="350" y="314.29" as="sourcePoint" />
            <mxPoint x="551" y="314.29" as="targetPoint" />
          </mxGeometry>
        </mxCell>
        <mxCell id="9NbQwZKD4lcpu0sw6ppA-32" value="&lt;font data-font-src=&quot;https://fonts.googleapis.com/css?family=Architects+Daughter&quot; face=&quot;Architects Daughter&quot; style=&quot;font-size: 17px;&quot;&gt;&lt;b&gt;&lt;u&gt;property_ID&lt;/u&gt;&lt;/b&gt;&lt;/font&gt;" style="ellipse;whiteSpace=wrap;html=1;" vertex="1" parent="1">
          <mxGeometry x="490" y="80" width="120" height="80" as="geometry" />
        </mxCell>
        <mxCell id="9NbQwZKD4lcpu0sw6ppA-33" value="&lt;font data-font-src=&quot;https://fonts.googleapis.com/css?family=Architects+Daughter&quot; face=&quot;Architects Daughter&quot; style=&quot;font-size: 17px;&quot;&gt;&lt;b&gt;Loacation&lt;/b&gt;&lt;/font&gt;" style="ellipse;whiteSpace=wrap;html=1;" vertex="1" parent="1">
          <mxGeometry x="670" y="100" width="120" height="80" as="geometry" />
        </mxCell>
        <mxCell id="9NbQwZKD4lcpu0sw6ppA-34" value="&lt;font face=&quot;Architects Daughter&quot;&gt;&lt;span style=&quot;font-size: 17px;&quot;&gt;&lt;b&gt;Address&lt;/b&gt;&lt;/span&gt;&lt;/font&gt;" style="ellipse;whiteSpace=wrap;html=1;" vertex="1" parent="1">
          <mxGeometry x="850" y="-80" width="120" height="80" as="geometry" />
        </mxCell>
        <mxCell id="9NbQwZKD4lcpu0sw6ppA-35" value="&lt;font face=&quot;Architects Daughter&quot;&gt;&lt;span style=&quot;font-size: 17px;&quot;&gt;&lt;b&gt;City&lt;/b&gt;&lt;/span&gt;&lt;/font&gt;" style="ellipse;whiteSpace=wrap;html=1;" vertex="1" parent="1">
          <mxGeometry x="970" width="120" height="80" as="geometry" />
        </mxCell>
        <mxCell id="9NbQwZKD4lcpu0sw6ppA-36" value="&lt;font face=&quot;Architects Daughter&quot;&gt;&lt;span style=&quot;font-size: 17px;&quot;&gt;&lt;b&gt;State&lt;/b&gt;&lt;/span&gt;&lt;/font&gt;" style="ellipse;whiteSpace=wrap;html=1;" vertex="1" parent="1">
          <mxGeometry x="980" y="90" width="120" height="80" as="geometry" />
        </mxCell>
        <mxCell id="9NbQwZKD4lcpu0sw6ppA-37" value="&lt;font face=&quot;Architects Daughter&quot;&gt;&lt;span style=&quot;font-size: 17px;&quot;&gt;&lt;b&gt;Zip_code&lt;/b&gt;&lt;/span&gt;&lt;/font&gt;" style="ellipse;whiteSpace=wrap;html=1;" vertex="1" parent="1">
          <mxGeometry x="720" y="-100" width="120" height="80" as="geometry" />
        </mxCell>
        <mxCell id="9NbQwZKD4lcpu0sw6ppA-40" value="" style="endArrow=none;html=1;rounded=0;entryX=0.5;entryY=1;entryDx=0;entryDy=0;exitX=1;exitY=0;exitDx=0;exitDy=0;sketch=1;curveFitting=1;jiggle=2;" edge="1" parent="1" source="9NbQwZKD4lcpu0sw6ppA-33" target="9NbQwZKD4lcpu0sw6ppA-37">
          <mxGeometry width="50" height="50" relative="1" as="geometry">
            <mxPoint x="490" y="340" as="sourcePoint" />
            <mxPoint x="540" y="290" as="targetPoint" />
          </mxGeometry>
        </mxCell>
        <mxCell id="9NbQwZKD4lcpu0sw6ppA-41" value="" style="endArrow=none;html=1;rounded=0;entryX=0;entryY=1;entryDx=0;entryDy=0;exitX=1;exitY=0;exitDx=0;exitDy=0;sketch=1;curveFitting=1;jiggle=2;" edge="1" parent="1" source="9NbQwZKD4lcpu0sw6ppA-33" target="9NbQwZKD4lcpu0sw6ppA-34">
          <mxGeometry width="50" height="50" relative="1" as="geometry">
            <mxPoint x="490" y="340" as="sourcePoint" />
            <mxPoint x="540" y="290" as="targetPoint" />
          </mxGeometry>
        </mxCell>
        <mxCell id="9NbQwZKD4lcpu0sw6ppA-42" value="" style="endArrow=none;html=1;rounded=0;entryX=0;entryY=1;entryDx=0;entryDy=0;exitX=1;exitY=0;exitDx=0;exitDy=0;sketch=1;curveFitting=1;jiggle=2;" edge="1" parent="1" source="9NbQwZKD4lcpu0sw6ppA-33" target="9NbQwZKD4lcpu0sw6ppA-35">
          <mxGeometry width="50" height="50" relative="1" as="geometry">
            <mxPoint x="770" y="120" as="sourcePoint" />
            <mxPoint x="540" y="290" as="targetPoint" />
          </mxGeometry>
        </mxCell>
        <mxCell id="9NbQwZKD4lcpu0sw6ppA-43" value="" style="endArrow=none;html=1;rounded=0;entryX=0;entryY=0.5;entryDx=0;entryDy=0;exitX=1;exitY=0;exitDx=0;exitDy=0;sketch=1;curveFitting=1;jiggle=2;" edge="1" parent="1" source="9NbQwZKD4lcpu0sw6ppA-33" target="9NbQwZKD4lcpu0sw6ppA-36">
          <mxGeometry width="50" height="50" relative="1" as="geometry">
            <mxPoint x="490" y="340" as="sourcePoint" />
            <mxPoint x="540" y="290" as="targetPoint" />
          </mxGeometry>
        </mxCell>
        <mxCell id="9NbQwZKD4lcpu0sw6ppA-45" value="" style="endArrow=none;html=1;rounded=0;exitX=0.5;exitY=0;exitDx=0;exitDy=0;entryX=0;entryY=1;entryDx=0;entryDy=0;sketch=1;curveFitting=1;jiggle=2;" edge="1" parent="1" source="9NbQwZKD4lcpu0sw6ppA-28" target="9NbQwZKD4lcpu0sw6ppA-33">
          <mxGeometry width="50" height="50" relative="1" as="geometry">
            <mxPoint x="810" y="260" as="sourcePoint" />
            <mxPoint x="860" y="210" as="targetPoint" />
          </mxGeometry>
        </mxCell>
        <mxCell id="9NbQwZKD4lcpu0sw6ppA-46" value="&lt;font data-font-src=&quot;https://fonts.googleapis.com/css?family=Architects+Daughter&quot; face=&quot;Architects Daughter&quot; style=&quot;font-size: 17px;&quot;&gt;&lt;b&gt;1&lt;/b&gt;&lt;/font&gt;" style="text;html=1;align=center;verticalAlign=middle;whiteSpace=wrap;rounded=0;" vertex="1" parent="1">
          <mxGeometry x="100" y="230" width="60" height="30" as="geometry" />
        </mxCell>
        <mxCell id="9NbQwZKD4lcpu0sw6ppA-47" value="&lt;font face=&quot;Architects Daughter&quot;&gt;&lt;span style=&quot;font-size: 17px;&quot;&gt;&lt;b&gt;M&lt;/b&gt;&lt;/span&gt;&lt;/font&gt;" style="text;html=1;align=center;verticalAlign=middle;whiteSpace=wrap;rounded=0;" vertex="1" parent="1">
          <mxGeometry x="470" y="220" width="60" height="30" as="geometry" />
        </mxCell>
        <mxCell id="9NbQwZKD4lcpu0sw6ppA-48" value="" style="endArrow=none;html=1;rounded=0;entryX=0;entryY=0.75;entryDx=0;entryDy=0;exitX=1;exitY=1;exitDx=0;exitDy=0;" edge="1" parent="1" source="9NbQwZKD4lcpu0sw6ppA-29" target="9NbQwZKD4lcpu0sw6ppA-28">
          <mxGeometry width="50" height="50" relative="1" as="geometry">
            <mxPoint x="490" y="560" as="sourcePoint" />
            <mxPoint x="540" y="510" as="targetPoint" />
          </mxGeometry>
        </mxCell>
        <mxCell id="9NbQwZKD4lcpu0sw6ppA-49" value="&lt;font face=&quot;Architects Daughter&quot;&gt;&lt;span style=&quot;font-size: 17px;&quot;&gt;&lt;b&gt;Owner&lt;/b&gt;&lt;/span&gt;&lt;/font&gt;" style="rounded=0;whiteSpace=wrap;html=1;" vertex="1" parent="1">
          <mxGeometry x="541" y="580" width="120" height="60" as="geometry" />
        </mxCell>
        <mxCell id="9NbQwZKD4lcpu0sw6ppA-50" value="" style="endArrow=none;html=1;rounded=0;entryX=0.5;entryY=1;entryDx=0;entryDy=0;exitX=0.5;exitY=0;exitDx=0;exitDy=0;" edge="1" parent="1" source="9NbQwZKD4lcpu0sw6ppA-51" target="9NbQwZKD4lcpu0sw6ppA-28">
          <mxGeometry width="50" height="50" relative="1" as="geometry">
            <mxPoint x="600" y="430" as="sourcePoint" />
            <mxPoint x="540" y="510" as="targetPoint" />
          </mxGeometry>
        </mxCell>
        <mxCell id="9NbQwZKD4lcpu0sw6ppA-51" value="&lt;font face=&quot;Architects Daughter&quot; style=&quot;font-size: 17px;&quot;&gt;&lt;b&gt;has&lt;/b&gt;&lt;/font&gt;" style="rhombus;whiteSpace=wrap;html=1;" vertex="1" parent="1">
          <mxGeometry x="561" y="400" width="80" height="80" as="geometry" />
        </mxCell>
        <mxCell id="9NbQwZKD4lcpu0sw6ppA-53" value="" style="endArrow=none;html=1;rounded=0;entryX=0.5;entryY=1;entryDx=0;entryDy=0;exitX=0.5;exitY=0;exitDx=0;exitDy=0;" edge="1" parent="1" source="9NbQwZKD4lcpu0sw6ppA-49" target="9NbQwZKD4lcpu0sw6ppA-51">
          <mxGeometry width="50" height="50" relative="1" as="geometry">
            <mxPoint x="740" y="780" as="sourcePoint" />
            <mxPoint x="740" y="680" as="targetPoint" />
          </mxGeometry>
        </mxCell>
        <mxCell id="9NbQwZKD4lcpu0sw6ppA-54" value="&lt;font face=&quot;Architects Daughter&quot;&gt;&lt;span style=&quot;font-size: 17px;&quot;&gt;&lt;b&gt;Owner_name&lt;/b&gt;&lt;/span&gt;&lt;/font&gt;" style="ellipse;whiteSpace=wrap;html=1;" vertex="1" parent="1">
          <mxGeometry x="670" y="730" width="120" height="80" as="geometry" />
        </mxCell>
        <mxCell id="9NbQwZKD4lcpu0sw6ppA-55" value="&lt;font data-font-src=&quot;https://fonts.googleapis.com/css?family=Architects+Daughter&quot; face=&quot;Architects Daughter&quot; style=&quot;font-size: 17px;&quot;&gt;&lt;b&gt;&lt;u&gt;Owner_ID&lt;/u&gt;&lt;/b&gt;&lt;/font&gt;" style="ellipse;whiteSpace=wrap;html=1;" vertex="1" parent="1">
          <mxGeometry x="440" y="765" width="120" height="80" as="geometry" />
        </mxCell>
        <mxCell id="9NbQwZKD4lcpu0sw6ppA-56" value="" style="endArrow=none;html=1;rounded=0;entryX=0.5;entryY=1;entryDx=0;entryDy=0;exitX=0.5;exitY=0;exitDx=0;exitDy=0;sketch=1;curveFitting=1;jiggle=2;" edge="1" parent="1" source="9NbQwZKD4lcpu0sw6ppA-55" target="9NbQwZKD4lcpu0sw6ppA-49">
          <mxGeometry width="50" height="50" relative="1" as="geometry">
            <mxPoint x="410" y="780" as="sourcePoint" />
            <mxPoint x="460" y="730" as="targetPoint" />
          </mxGeometry>
        </mxCell>
        <mxCell id="9NbQwZKD4lcpu0sw6ppA-57" value="" style="endArrow=none;html=1;rounded=0;entryX=0.5;entryY=1;entryDx=0;entryDy=0;exitX=0;exitY=0;exitDx=0;exitDy=0;sketch=1;curveFitting=1;jiggle=2;" edge="1" parent="1" source="9NbQwZKD4lcpu0sw6ppA-54" target="9NbQwZKD4lcpu0sw6ppA-49">
          <mxGeometry width="50" height="50" relative="1" as="geometry">
            <mxPoint x="520" y="785" as="sourcePoint" />
            <mxPoint x="621" y="660" as="targetPoint" />
          </mxGeometry>
        </mxCell>
        <mxCell id="9NbQwZKD4lcpu0sw6ppA-58" value="" style="endArrow=none;html=1;rounded=0;entryX=0.5;entryY=1;entryDx=0;entryDy=0;exitX=0.5;exitY=0;exitDx=0;exitDy=0;sketch=1;curveFitting=1;jiggle=2;" edge="1" parent="1" source="9NbQwZKD4lcpu0sw6ppA-28" target="9NbQwZKD4lcpu0sw6ppA-32">
          <mxGeometry width="50" height="50" relative="1" as="geometry">
            <mxPoint x="220" y="420" as="sourcePoint" />
            <mxPoint x="270" y="370" as="targetPoint" />
          </mxGeometry>
        </mxCell>
        <mxCell id="9NbQwZKD4lcpu0sw6ppA-59" value="&lt;font face=&quot;Architects Daughter&quot;&gt;&lt;span style=&quot;font-size: 17px;&quot;&gt;&lt;b&gt;M&lt;/b&gt;&lt;/span&gt;&lt;/font&gt;" style="text;html=1;align=center;verticalAlign=middle;whiteSpace=wrap;rounded=0;" vertex="1" parent="1">
          <mxGeometry x="541" y="300" width="60" height="30" as="geometry" />
        </mxCell>
        <mxCell id="9NbQwZKD4lcpu0sw6ppA-60" value="&lt;font face=&quot;Architects Daughter&quot;&gt;&lt;span style=&quot;font-size: 17px;&quot;&gt;&lt;b&gt;M&lt;/b&gt;&lt;/span&gt;&lt;/font&gt;" style="text;html=1;align=center;verticalAlign=middle;whiteSpace=wrap;rounded=0;" vertex="1" parent="1">
          <mxGeometry x="541" y="550" width="60" height="30" as="geometry" />
        </mxCell>
        <mxCell id="9NbQwZKD4lcpu0sw6ppA-61" value="&lt;font face=&quot;Architects Daughter&quot;&gt;&lt;span style=&quot;font-size: 17px;&quot;&gt;&lt;b&gt;Percent&lt;/b&gt;&lt;/span&gt;&lt;/font&gt;" style="ellipse;whiteSpace=wrap;html=1;" vertex="1" parent="1">
          <mxGeometry x="770" y="400" width="120" height="80" as="geometry" />
        </mxCell>
        <mxCell id="9NbQwZKD4lcpu0sw6ppA-62" value="" style="endArrow=none;html=1;rounded=0;entryX=0;entryY=0.5;entryDx=0;entryDy=0;exitX=1;exitY=0.5;exitDx=0;exitDy=0;sketch=1;curveFitting=1;jiggle=2;" edge="1" parent="1" source="9NbQwZKD4lcpu0sw6ppA-51" target="9NbQwZKD4lcpu0sw6ppA-61">
          <mxGeometry width="50" height="50" relative="1" as="geometry">
            <mxPoint x="670" y="480" as="sourcePoint" />
            <mxPoint x="720" y="430" as="targetPoint" />
          </mxGeometry>
        </mxCell>
        <mxCell id="9NbQwZKD4lcpu0sw6ppA-63" value="" style="endArrow=none;html=1;rounded=0;entryX=0.25;entryY=1;entryDx=0;entryDy=0;exitX=0;exitY=0;exitDx=0;exitDy=0;" edge="1" parent="1" source="9NbQwZKD4lcpu0sw6ppA-9" target="9NbQwZKD4lcpu0sw6ppA-4">
          <mxGeometry width="50" height="50" relative="1" as="geometry">
            <mxPoint x="340" y="510" as="sourcePoint" />
            <mxPoint x="390" y="460" as="targetPoint" />
          </mxGeometry>
        </mxCell>
        <mxCell id="9NbQwZKD4lcpu0sw6ppA-64" value="" style="endArrow=none;html=1;rounded=0;entryX=1;entryY=1;entryDx=0;entryDy=0;exitX=0.75;exitY=0;exitDx=0;exitDy=0;" edge="1" parent="1" source="9NbQwZKD4lcpu0sw6ppA-49" target="9NbQwZKD4lcpu0sw6ppA-51">
          <mxGeometry width="50" height="50" relative="1" as="geometry">
            <mxPoint x="520" y="590" as="sourcePoint" />
            <mxPoint x="570" y="540" as="targetPoint" />
          </mxGeometry>
        </mxCell>
      </root>
    </mxGraphModel>
  </diagram>
</mxfile>
